<svg xmlns="http://www.w3.org/2000/svg" viewBox="0 0 105 125"><path d="M91.93,31.81a5,5,0,0,1,3.65,3.91c5,24.27-.85,58.43-41.2,78.13a1.11,1.11,0,0,1-1.59-1V14.67c0-1.35.85-1.75,1.9-.9C62.06,19.69,74.82,28.42,91.93,31.81ZM104,7.5H99V3a1,1,0,0,0-2,0V7.5H92a1,1,0,0,0,0,2h5V15a1,1,0,0,0,2,0V9.5h5a1,1,0,0,0,0-2Zm-91,102H8V105a1,1,0,0,0-2,0v4.5H1a1,1,0,0,0,0,2H6V117a1,1,0,0,0,2,0v-5.5h5a1,1,0,0,0,0-2ZM26,121a2,2,0,1,0-2,2,2,2,0,0,0,2-2" fill="#ffb402"/><path d="M66.68,90.45c-4.91,0-9.86-3.13-13.87-7.42-4,4.29-9,7.42-13.89,7.42-5.74,0-11.86-3-11.86-11.58,0-1.42.14-2.92,1.9-6.87,1.2-2.89,12.22-24.48,15.74-30.66,2.44-4.17,4.71-5.8,8.11-5.8s5.61,1.57,8.1,5.78C64.5,47.7,75.51,69.26,76.66,72c1.74,3.93,1.89,5.43,1.89,6.85C78.54,87.41,72.41,90.45,66.68,90.45Zm-12.56-8.9c3.68,4,8.17,6.9,12.56,6.9,2.31,0,9.86-.69,9.86-9.58,0-1,0-2.17-1.72-6.06-1.14-2.76-12.08-24.16-15.65-30.48-2.38-4-4.08-4.78-6.37-4.78s-4,.78-6.38,4.8C42.93,48.47,32,69.9,30.78,72.79,29,76.7,29,77.85,29,78.87c0,8.89,7.55,9.58,9.86,9.58,4,0,8.5-2.49,12.56-6.92-4.49-5.36-7.53-12-7.53-16.77s2.74-9.23,8.85-9.23,8.87,4.64,8.87,9.23C61.67,69.51,58.62,76.19,54.12,81.55Zm-1.32-24c-6.65,0-6.85,6.49-6.85,7.23,0,4.23,2.78,10.32,6.84,15.26l.3-.37c3.94-4.94,6.59-10.92,6.59-14.89C59.67,64,59.48,57.53,52.8,57.53Zm0,65.18a1,1,0,0,1-.38-.08c-41.67-17.26-58.13-49.23-48.9-95a1,1,0,0,1,.81-.79C24.39,23.33,40.45,15.09,52.06,2.33A1,1,0,0,1,52.78,2a1,1,0,0,1,.74.31c12.2,12.78,28.27,21,47.76,24.51a1,1,0,0,1,.8.79c9.22,45.8-7.23,77.77-48.9,95A1,1,0,0,1,52.8,122.71Zm-47.46-94C1,50.79,2.76,69.71,10.59,84.93s22.05,27.27,42.21,35.7C73,112.2,87.15,100.2,95,84.93s9.59-34.15,5.25-56.26C81,25.1,65.08,17,52.81,4.46,41.09,17,25.13,25.11,5.34,28.67Z" fill="#565a5c"/></svg>
